<svg width="23" height="20" viewBox="0 0 23 20" fill="none" xmlns="http://www.w3.org/2000/svg">
<g clip-path="url(#clip0)">
<path d="M6.49637 4.55146C6.18097 4.26279 5.66927 4.26279 5.35388 4.55146C4.18285 5.6224 3.60729 7.11428 3.77456 8.64482C3.81629 9.02611 4.16752 9.31033 4.57769 9.31033C4.60464 9.31033 4.63181 9.30908 4.65876 9.30662C5.10289 9.26599 5.42687 8.90365 5.38245 8.49775C5.26341 7.41006 5.66957 6.35244 6.49637 5.59627C6.81202 5.30787 6.81202 4.83986 6.49637 4.55146Z" fill="white"/>
<path d="M9.69584 0C4.60208 0 0.458008 3.78988 0.458008 8.44828C0.458008 13.1067 4.60208 16.8966 9.69584 16.8966C14.7896 16.8966 18.9337 13.1067 18.9337 8.44828C18.9337 3.78988 14.7896 0 9.69584 0ZM9.69584 15.4187C5.49303 15.4187 2.07397 12.2919 2.07397 8.44828C2.07397 4.60469 5.49303 1.47785 9.69584 1.47785C13.8984 1.47785 17.3177 4.60469 17.3177 8.44828C17.3177 12.2919 13.8986 15.4187 9.69584 15.4187Z" fill="white"/>
<path d="M22.0904 18.7387L16.2191 13.3692C15.9034 13.0805 15.3922 13.0805 15.0766 13.3692C14.7609 13.6577 14.7609 14.1256 15.0766 14.4141L20.9479 19.7835C21.1057 19.9278 21.3123 20 21.5191 20C21.726 20 21.9326 19.9278 22.0904 19.7835C22.406 19.4951 22.406 19.0271 22.0904 18.7387Z" fill="white"/>
</g>
<defs>
<clipPath id="clip0">
<rect width="21.8691" height="20" fill="white" transform="translate(0.458008)"/>
</clipPath>
</defs>
</svg>
